<?xml version="1.0" encoding="UTF-8"?>
<!DOCTYPE svg PUBLIC "-//W3C//DTD SVG 1.1//EN" "http://www.w3.org/Graphics/SVG/1.1/DTD/svg11.dtd">
<!-- Creator: CorelDRAW -->
<svg xmlns="http://www.w3.org/2000/svg" xml:space="preserve" width="313px" height="52px" style="shape-rendering:geometricPrecision; text-rendering:geometricPrecision; image-rendering:optimizeQuality; fill-rule:evenodd; clip-rule:evenodd"
viewBox="0 0 48.0999 8.00836"
 xmlns:xlink="http://www.w3.org/1999/xlink">
 <defs>
  <style type="text/css">
   <![CDATA[
    .fil0 {fill: #2c3e50}
   ]]>
  </style>
 </defs>
 <g id="Layer_x0020_1">
  <metadata id="CorelCorpID_0Corel-Layer"/>
  <rect class="fil0" y="3.61681" width="18.7912" height="0.590177" rx="1.82303" ry="1.82303"/>
  <rect class="fil0" x="29.3087" y="3.61681" width="18.7912" height="0.590177" rx="1.82303" ry="1.82303"/>
  <polygon class="fil0" points="24.085,0 24.689,0.854477 25.5762,0.218524 25.8314,1.19888 26.9058,0.850117 26.7847,1.85009 27.9298,1.82648 27.4453,2.73781 28.537,3.04189 27.7418,3.76576 28.662,4.36466 27.6421,4.82242 28.2907,5.65128 27.1569,5.79351 27.4639,6.76224 26.3387,6.57369 26.2708,7.57749 25.2764,7.07831 24.8409,8.00836 24.085,7.25288 23.3292,8.00836 22.8936,7.07831 21.8992,7.57749 21.8313,6.57369 20.7062,6.76224 21.0131,5.79351 19.8793,5.65128 20.528,4.82242 19.508,4.36466 20.4282,3.76576 19.633,3.04189 20.7247,2.73781 20.2402,1.82648 21.3853,1.85009 21.2642,0.850117 22.3386,1.19888 22.5939,0.218524 23.481,0.854477 "/>
 </g>
</svg>
