<?xml version="1.0" encoding="utf-8"?>
<!-- Generator: Adobe Illustrator 19.0.0, SVG Export Plug-In . SVG Version: 6.00 Build 0)  -->
<svg version="1.1" id="Layer_1" xmlns="http://www.w3.org/2000/svg" xmlns:xlink="http://www.w3.org/1999/xlink" x="0px" y="0px"
	 viewBox="0 0 500 500" style="enable-background:new 0 0 500 500;" xml:space="preserve">
<style type="text/css">
	.st0{fill:#8C96A1;}
	.st1{fill:url(#XMLID_42_);}
	.st2{fill:#0C4C75;}
</style>
<g id="XMLID_1_">
	<path id="XMLID_5_" class="st0" d="M103.5,246.5l-35.6,79.7h23.3l6.9-16.9h35.8l6.9,16.9H164l-35.7-79.7H103.5z M116.1,265.3
		l6,15.2l6,15.2l-12,0l-12,0l6-15.2L116.1,265.3L116.1,265.3z"/>
	<path id="XMLID_8_" class="st0" d="M276,246.5l-35.6,79.7h23.3l6.9-16.9h35.8l6.9,16.9h23.3l-35.7-79.7H276z M288.7,265.3l6,15.2
		l6,15.2l-12,0l-12,0l6-15.2L288.7,265.3L288.7,265.3z"/>
	<polygon id="XMLID_9_" class="st0" points="342.7,246.2 369.1,246.2 386,271.7 403.9,246.2 430,246.2 398.6,284.9 432,326.5 
		405.6,326.5 386.4,299.4 367.6,326.5 339.4,326.5 373.4,285.3 	"/>
	<path id="XMLID_10_" class="st0" d="M230.9,212.5l-31.6,31.1l10.9,9.9l10.3-10.4l1.2,0v59.4c0,7.5-6.1,13.6-13.6,13.6h-10.8
		c-7.5,0-13.6-6.1-13.6-13.6v-6.3h-21v7.9c0,13.6,11,24.6,24.6,24.6h28c13.6,0,24.6-11,24.6-24.6v-60.9l0.8,0l12,10.3l9.5-9.9
		L230.9,212.5L230.9,212.5z"/>
	<path id="XMLID_11_" class="st0" d="M172.8,289.7l31.6-31.1l-10.9-9.9l-10.3,10.4l-1.2,0v-59.4c0-7.5,6.1-13.6,13.6-13.6h10.8
		c7.5,0,13.6,6.1,13.6,13.6v6.3h21v-7.9c0-13.6-11-24.6-24.6-24.6h-28c-13.6,0-24.6,11-24.6,24.6V259l-0.8,0l-12-10.3l-9.5,9.9
		L172.8,289.7L172.8,289.7z"/>
	
		<linearGradient id="XMLID_42_" gradientUnits="userSpaceOnUse" x1="9.219890e-003" y1="-4.554954e-003" x2="0.9809" y2="-4.554954e-003" gradientTransform="matrix(0 160.5822 -160.5822 0 249.2025 168.7911)">
		<stop  offset="0" style="stop-color:#70B0DF"/>
		<stop  offset="0.5" style="stop-color:#1B81C5"/>
		<stop  offset="1" style="stop-color:#4A98CE"/>
	</linearGradient>
	<path id="XMLID_19_" class="st1" d="M188.7,171.5c-13.6,0-24.6,11-24.6,24.6v60.9l-0.8,0l-12-10.3l-9.5,9.9l31.1,31.1l31.6-31.1
		l-10.9-9.9l-10.3,10.4l-1.1,0v-59.4c0-7.5,6.1-13.6,13.6-13.6h10.8c7.5,0,13.6,6.1,13.6,13.6v6.3h21v-7.9c0-13.6-11-24.6-24.6-24.6
		H188.7z M230.9,210.6l-31.6,31.1l10.9,9.9l10.3-10.4l1.2,0v59.4c0,7.5-6.1,13.6-13.6,13.6h-10.8c-7.5,0-13.6-6.1-13.6-13.6v-6.3
		h-21v7.9c0,13.6,11,24.6,24.6,24.6h28c13.6,0,24.6-11,24.6-24.6v-60.9l0.8,0l12,10.3l9.5-9.9L230.9,210.6z M342.7,244.3l30.7,39
		l-34.1,41.2h28.2l18.8-27.1l19.2,27.1H432l-33.4-41.6l31.4-38.6h-26L386,269.7l-16.9-25.4H342.7z M103.5,244.6l-35.6,79.7h23.3
		l6.9-16.9h35.8l6.9,16.9H164l-35.7-79.7H103.5z M276,244.6l-35.6,79.7h23.3l6.9-16.9h35.8l6.9,16.9h23.3l-35.7-79.7H276z
		 M116.1,263.4l6,15.2l6,15.2l-12,0l-12,0l6-15.2L116.1,263.4z M288.7,263.4l6,15.2l6,15.2l-12,0l-12,0l6-15.2L288.7,263.4z"/>
	<path id="XMLID_27_" class="st2" d="M188.7,171.5v-0.2c-6.9,0-13.1,2.8-17.6,7.3c-4.5,4.5-7.3,10.7-7.3,17.6v60.7l-0.5,0
		l-12.1-10.4l-9.8,10.2l31.5,31.5l32-31.5l-11.3-10.2l-10.4,10.5l-0.8,0l0-59.2c0-7.4,6-13.4,13.4-13.4h10.8c7.4,0,13.4,6,13.4,13.4
		v6.6h21.5v-8.1c0-6.9-2.8-13.1-7.3-17.6c-4.5-4.5-10.7-7.3-17.6-7.3h-28V171.5v0.2h28c13.5,0,24.4,10.9,24.4,24.4v7.7h-20.6v-6.1
		c0-3.8-1.5-7.3-4.1-9.8c-2.5-2.5-6-4.1-9.8-4.1h-10.8c-3.8,0-7.3,1.5-9.8,4.1c-2.5,2.5-4.1,6-4.1,9.8v59.7l1.5,0l10.2-10.3
		l10.5,9.5l-31.3,30.8l-30.8-30.8l9.1-9.5l11.9,10.2l0.9,0l0.2,0v-61.2c0-13.5,10.9-24.4,24.4-24.4V171.5z M230.9,210.6l-0.2-0.2
		l-31.8,31.3l11.3,10.2l10.4-10.5l0.8,0v59.2c0,7.4-6,13.4-13.4,13.4h-10.8c-7.4,0-13.4-6-13.4-13.4V294h-21.5v8.1
		c0,6.9,2.8,13.1,7.3,17.6c4.5,4.5,10.7,7.3,17.6,7.3h28c6.9,0,13.1-2.8,17.6-7.3c4.5-4.5,7.3-10.7,7.3-17.6v-60.7l0.5,0l12.1,10.4
		l9.8-10.2l-31.5-31.5l-0.2,0.2L230.9,210.6l-0.2,0.2l30.9,30.9l-9.1,9.5L240.6,241l-0.9,0l-0.2,0v61.2c0,13.5-10.9,24.4-24.4,24.4
		h-28c-13.5,0-24.4-10.9-24.4-24.4v-7.7h20.6v6.1c0,3.8,1.5,7.3,4.1,9.8c2.5,2.5,6,4.1,9.8,4.1h10.8c3.8,0,7.3-1.5,9.8-4.1
		c2.5-2.5,4.1-6,4.1-9.8v-59.7l-1.5,0l-10.2,10.3l-10.5-9.5l31.5-30.9L230.9,210.6l-0.2,0.2L230.9,210.6z M342.7,244.3l-0.2,0.2
		l30.6,38.9l-34.3,41.5h28.8l18.7-27l19.1,27h27.1l-33.6-41.9l31.6-38.9h-26.7L386,269.3l-16.8-25.2h-27.1l0.3,0.4L342.7,244.3v0.2
		H369l17,25.6l18-25.6h25.4l-31.2,38.4l33.2,41.4h-25.8L386.4,297l-18.9,27.3h-27.6l33.8-41l-30.9-39.2L342.7,244.3v0.2V244.3z
		 M103.5,244.6l-0.2-0.1l-35.7,80h23.8l6.9-16.9h35.4l6.9,16.9h23.8l-35.9-80.2h-25.2l-0.1,0.1L103.5,244.6v0.2h24.7l35.5,79.2
		h-22.7l-6.9-16.9H97.9L91,324H68.2l35.4-79.4L103.5,244.6v0.2V244.6z M276,244.6l-0.2-0.1l-35.7,80h23.8l6.9-16.9h35.4l6.9,16.9
		H337l-35.9-80.2h-25.2l-0.1,0.1L276,244.6v0.2h24.7l35.5,79.2h-22.7l-6.9-16.9h-36.1l-6.9,16.9h-22.7l35.4-79.4L276,244.6v0.2
		V244.6z M116.1,263.4l-0.2,0.1l6,15.2l5.9,14.8l-11.7,0l-11.7,0l5.9-14.9l6-15.2L116.1,263.4l-0.2,0.1L116.1,263.4l-0.2-0.1
		l-6,15.2l-6.1,15.5l12.4,0l12.4,0l-6.2-15.5l-6.3-15.7l-0.2,0.6L116.1,263.4z M288.7,263.4l-0.2,0.1l6,15.2l5.9,14.8l-11.7,0
		l-11.7,0l5.9-14.9l6-15.2L288.7,263.4l-0.2,0.1L288.7,263.4l-0.2-0.1l-6,15.2l-6.1,15.5l12.4,0l12.4,0l-6.2-15.5l-6.3-15.7
		l-0.2,0.6L288.7,263.4z"/>
</g>
</svg>
