<svg xmlns="http://www.w3.org/2000/svg" xmlns:xlink="http://www.w3.org/1999/xlink" preserveAspectRatio="xMidYMid" width="32" height="64" viewBox="0 0 32 64">
  <defs>
    <style>

      .cls-3 {
        fill: #fff;
      }
    </style>
  </defs>
  <g id="group-14svg">
    <path d="M20.073,63.038 C20.073,63.038 7.073,63.038 7.073,63.038 C6.245,63.038 6.000,62.366 6.000,61.537 C6.000,61.537 6.000,35.018 6.000,35.018 C6.000,35.018 1.073,35.018 1.073,35.018 C0.245,35.018 -0.000,34.346 -0.000,33.517 C-0.000,33.517 -0.000,22.509 -0.000,22.509 C-0.000,21.680 0.245,21.008 1.073,21.008 C1.073,21.008 7.016,21.008 7.016,21.008 C7.010,12.244 8.559,6.392 11.736,3.147 C14.450,0.375 17.734,-0.007 20.879,-0.007 C20.879,-0.007 30.073,-0.007 30.073,-0.007 C30.901,-0.007 32.000,0.665 32.000,1.494 C32.000,1.494 32.000,13.503 32.000,13.503 C32.000,14.332 30.901,15.004 30.073,15.004 C30.073,15.004 22.000,15.004 22.000,15.004 C22.000,15.004 22.000,21.008 22.000,21.008 C22.000,21.008 30.073,21.008 30.073,21.008 C30.901,21.008 32.000,21.680 32.000,22.509 C32.000,22.509 32.000,33.517 32.000,33.517 C32.000,34.346 30.901,35.018 30.073,35.018 C30.073,35.018 22.000,35.018 22.000,35.018 C22.000,35.018 22.000,61.537 22.000,61.537 C22.000,62.366 20.901,63.038 20.073,63.038 ZM9.000,60.036 C9.000,60.036 19.000,60.036 19.000,60.036 C19.000,60.036 19.000,33.517 19.000,33.517 C19.000,32.688 19.245,32.016 20.073,32.016 C20.073,32.016 29.000,32.016 29.000,32.016 C29.000,32.016 29.000,24.010 29.000,24.010 C29.000,24.010 20.073,24.010 20.073,24.010 C19.245,24.010 19.000,23.338 19.000,22.509 C19.000,22.509 19.000,13.503 19.000,13.503 C19.000,12.674 19.245,12.002 20.073,12.002 C20.073,12.002 29.000,12.002 29.000,12.002 C29.000,12.002 29.000,2.995 29.000,2.995 C29.000,2.995 20.879,2.995 20.879,2.995 C18.559,2.995 15.914,3.169 13.879,5.248 C11.151,8.033 9.856,13.830 10.031,22.479 C10.039,22.882 9.885,23.272 9.602,23.560 C9.320,23.848 8.935,24.010 8.531,24.010 C8.531,24.010 3.000,24.010 3.000,24.010 C3.000,24.010 3.000,32.016 3.000,32.016 C3.000,32.016 7.073,32.016 7.073,32.016 C7.901,32.016 9.000,32.688 9.000,33.517 C9.000,33.517 9.000,60.036 9.000,60.036 Z" id="path-1" class="cls-3" fill-rule="evenodd"/>
  </g>
</svg>
