<svg xmlns="http://www.w3.org/2000/svg" xmlns:xlink="http://www.w3.org/1999/xlink" preserveAspectRatio="xMidYMid" width="58" height="61" viewBox="0 0 58 61">
  <defs>
    <style>

      .cls-3 {
        fill: #fff;
      }
    </style>
  </defs>
  <g id="group-2svg">
    <path d="M51.000,17.510 C51.000,18.892 49.881,20.012 48.500,20.012 C48.500,20.012 42.500,20.012 42.500,20.012 C41.119,20.012 40.000,18.892 40.000,17.510 C40.000,17.510 40.000,11.506 40.000,11.506 C40.000,10.124 41.119,9.004 42.500,9.004 C42.500,9.004 48.500,9.004 48.500,9.004 C49.881,9.004 51.000,10.124 51.000,11.506 C51.000,11.506 51.000,17.510 51.000,17.510 ZM43.000,17.010 C43.000,17.010 48.000,17.010 48.000,17.010 C48.000,17.010 48.000,12.006 48.000,12.006 C48.000,12.006 43.000,12.006 43.000,12.006 C43.000,12.006 43.000,17.010 43.000,17.010 Z" id="path-1" class="cls-3" fill-rule="evenodd"/>
    <path d="M58.000,50.533 C58.000,55.784 53.747,60.040 48.500,60.040 C48.500,60.040 9.500,60.040 9.500,60.040 C4.253,60.040 -0.000,55.784 -0.000,50.533 C-0.000,50.533 -0.000,9.504 -0.000,9.504 C-0.000,4.254 4.253,-0.002 9.500,-0.002 C9.500,-0.002 48.500,-0.002 48.500,-0.002 C53.747,-0.002 58.000,4.254 58.000,9.504 C58.000,9.504 58.000,50.533 58.000,50.533 ZM55.000,9.504 C55.000,5.912 52.090,3.000 48.500,3.000 C48.500,3.000 9.500,3.000 9.500,3.000 C5.910,3.000 3.000,5.912 3.000,9.504 C3.000,9.504 3.000,50.533 3.000,50.533 C3.000,54.126 5.910,57.038 9.500,57.038 C9.500,57.038 48.500,57.038 48.500,57.038 C52.090,57.038 55.000,54.126 55.000,50.533 C55.000,50.533 55.000,9.504 55.000,9.504 Z" id="path-2" class="cls-3" fill-rule="evenodd"/>
    <path d="M29.444,53.245 C22.136,53.245 16.189,47.295 16.189,39.981 C16.189,32.667 22.136,26.716 29.444,26.716 C36.753,26.716 42.699,32.667 42.699,39.981 C42.699,47.295 36.753,53.245 29.444,53.245 ZM29.444,29.718 C23.790,29.718 19.189,34.322 19.189,39.981 C19.189,45.639 23.790,50.243 29.444,50.243 C35.099,50.243 39.699,45.639 39.699,39.981 C39.699,34.322 35.099,29.718 29.444,29.718 Z" id="path-3" class="cls-3" fill-rule="evenodd"/>
    <path d="M29.444,48.061 C24.992,48.061 21.370,44.436 21.370,39.981 C21.370,35.526 24.992,31.901 29.444,31.901 C33.896,31.901 37.518,35.526 37.518,39.981 C37.518,44.436 33.896,48.061 29.444,48.061 ZM29.444,34.903 C26.646,34.903 24.370,37.181 24.370,39.981 C24.370,42.781 26.646,45.059 29.444,45.059 C32.242,45.059 34.519,42.781 34.519,39.981 C34.519,37.181 32.242,34.903 29.444,34.903 Z" id="path-4" class="cls-3" fill-rule="evenodd"/>
    <path d="M54.573,25.015 C54.573,25.015 2.573,25.015 2.573,25.015 C1.745,25.015 1.073,24.343 1.073,23.514 C1.073,22.685 1.745,22.013 2.573,22.013 C2.573,22.013 54.573,22.013 54.573,22.013 C55.401,22.013 56.073,22.685 56.073,23.514 C56.073,24.343 55.401,25.015 54.573,25.015 Z" id="path-5" class="cls-3" fill-rule="evenodd"/>
  </g>
</svg>
