<svg xmlns="http://www.w3.org/2000/svg" xmlns:xlink="http://www.w3.org/1999/xlink" preserveAspectRatio="xMidYMid" width="63" height="52" viewBox="0 0 63 52">
  <defs>
    <style>

      .cls-3 {
        fill: #fff;
      }
    </style>
  </defs>
  <g id="group-10svg">
    <path d="M20.401,52.157 C6.815,52.157 1.582,45.364 0.302,43.282 C-0.062,42.690 -0.080,41.947 0.253,41.339 C0.586,40.731 1.226,40.346 1.921,40.335 C5.568,40.278 9.880,39.986 12.769,39.354 C10.005,37.643 6.307,34.419 6.569,29.534 C5.260,28.212 2.132,24.378 2.707,18.364 C2.098,16.305 -0.540,5.701 7.872,0.294 C8.184,0.093 8.546,-0.013 8.918,-0.013 C9.693,-0.013 10.393,0.444 10.699,1.152 C11.310,2.569 14.965,9.617 28.276,12.827 C28.830,9.792 30.794,3.829 37.706,1.757 C39.363,1.261 40.974,1.009 42.494,1.009 C47.124,1.009 49.787,3.268 50.820,4.386 C51.761,4.427 54.086,4.312 57.362,2.504 C58.211,2.037 59.338,2.304 59.888,3.093 C60.248,3.609 60.333,4.272 60.115,4.865 C60.115,4.865 59.239,7.246 59.239,7.246 C59.239,7.246 60.630,6.915 60.630,6.915 C61.382,6.736 62.195,7.039 62.646,7.665 C63.011,8.169 63.111,8.824 62.915,9.416 C62.449,10.817 61.169,13.515 57.821,15.878 C57.821,15.878 57.624,16.000 57.624,16.000 C57.451,16.149 56.436,17.196 56.705,21.055 C57.087,26.522 50.840,48.043 27.841,51.558 C25.240,51.956 22.736,52.157 20.401,52.157 ZM4.053,43.281 C6.183,45.637 10.949,49.155 20.401,49.155 C22.586,49.155 24.936,48.965 27.388,48.590 C48.032,45.435 54.041,25.957 53.713,21.265 C53.311,15.504 55.381,13.802 56.178,13.364 C57.598,12.347 58.527,11.282 59.135,10.357 C59.135,10.357 58.006,10.626 58.006,10.626 C57.238,10.809 56.418,10.494 55.969,9.849 C55.606,9.331 55.521,8.667 55.739,8.073 C55.739,8.073 56.398,6.279 56.398,6.279 C54.146,7.174 52.340,7.394 51.108,7.394 C50.622,7.394 50.256,7.358 50.034,7.328 C49.550,7.261 49.114,7.017 48.806,6.640 C48.446,6.197 46.475,4.011 42.494,4.011 C41.266,4.011 39.944,4.220 38.567,4.633 C32.362,6.493 31.275,12.512 31.091,14.312 C30.986,15.308 30.154,16.057 29.155,16.057 C29.155,16.057 28.746,16.014 28.746,16.014 C15.454,13.137 10.311,6.698 8.530,3.519 C2.832,8.183 5.318,16.684 5.637,17.683 C5.715,17.928 5.741,18.189 5.714,18.455 C5.109,23.936 8.318,27.098 8.968,27.676 C9.430,28.085 9.666,28.705 9.595,29.332 C9.071,34.049 14.097,36.850 16.281,37.836 C16.967,38.145 17.416,38.831 17.428,39.584 C17.438,40.337 17.027,41.008 16.354,41.336 C13.567,42.698 7.793,43.140 4.053,43.281 Z" id="path-1" class="cls-3" fill-rule="evenodd"/>
  </g>
</svg>
